<svg id="visual" viewBox="0 0 675 900" width="675" height="900" xmlns="http://www.w3.org/2000/svg" xmlns:xlink="http://www.w3.org/1999/xlink" version="1.1"><rect x="0" y="0" width="675" height="900" fill="#001220"></rect><path d="M0 589L16 594.7C32 600.3 64 611.7 96.2 613C128.3 614.3 160.7 605.7 192.8 604.7C225 603.7 257 610.3 289.2 620.5C321.3 630.7 353.7 644.3 385.8 648.2C418 652 450 646 482.2 638.7C514.3 631.3 546.7 622.7 578.8 622.3C611 622 643 630 659 634L675 638L675 901L659 901C643 901 611 901 578.8 901C546.7 901 514.3 901 482.2 901C450 901 418 901 385.8 901C353.7 901 321.3 901 289.2 901C257 901 225 901 192.8 901C160.7 901 128.3 901 96.2 901C64 901 32 901 16 901L0 901Z" fill="#fa7268"></path><path d="M0 703L16 684.7C32 666.3 64 629.7 96.2 624.5C128.3 619.3 160.7 645.7 192.8 652.7C225 659.7 257 647.3 289.2 653.3C321.3 659.3 353.7 683.7 385.8 679.3C418 675 450 642 482.2 624.5C514.3 607 546.7 605 578.8 606.8C611 608.7 643 614.3 659 617.2L675 620L675 901L659 901C643 901 611 901 578.8 901C546.7 901 514.3 901 482.2 901C450 901 418 901 385.8 901C353.7 901 321.3 901 289.2 901C257 901 225 901 192.8 901C160.7 901 128.3 901 96.2 901C64 901 32 901 16 901L0 901Z" fill="#ef5f67"></path><path d="M0 692L16 688.8C32 685.7 64 679.3 96.2 676.5C128.3 673.7 160.7 674.3 192.8 675.5C225 676.7 257 678.3 289.2 676.8C321.3 675.3 353.7 670.7 385.8 671.5C418 672.3 450 678.7 482.2 679.5C514.3 680.3 546.7 675.7 578.8 687.7C611 699.7 643 728.3 659 742.7L675 757L675 901L659 901C643 901 611 901 578.8 901C546.7 901 514.3 901 482.2 901C450 901 418 901 385.8 901C353.7 901 321.3 901 289.2 901C257 901 225 901 192.8 901C160.7 901 128.3 901 96.2 901C64 901 32 901 16 901L0 901Z" fill="#e34c67"></path><path d="M0 808L16 794.7C32 781.3 64 754.7 96.2 742.3C128.3 730 160.7 732 192.8 735.5C225 739 257 744 289.2 744.7C321.3 745.3 353.7 741.7 385.8 742.3C418 743 450 748 482.2 759.3C514.3 770.7 546.7 788.3 578.8 791.5C611 794.7 643 783.3 659 777.7L675 772L675 901L659 901C643 901 611 901 578.8 901C546.7 901 514.3 901 482.2 901C450 901 418 901 385.8 901C353.7 901 321.3 901 289.2 901C257 901 225 901 192.8 901C160.7 901 128.3 901 96.2 901C64 901 32 901 16 901L0 901Z" fill="#d53867"></path><path d="M0 798L16 799.2C32 800.3 64 802.7 96.2 808C128.3 813.3 160.7 821.7 192.8 825.3C225 829 257 828 289.2 830.5C321.3 833 353.7 839 385.8 837.7C418 836.3 450 827.7 482.2 824C514.3 820.3 546.7 821.7 578.8 824.7C611 827.7 643 832.3 659 834.7L675 837L675 901L659 901C643 901 611 901 578.8 901C546.7 901 514.3 901 482.2 901C450 901 418 901 385.8 901C353.7 901 321.3 901 289.2 901C257 901 225 901 192.8 901C160.7 901 128.3 901 96.2 901C64 901 32 901 16 901L0 901Z" fill="#c62368"></path></svg>