<svg id="visual" viewBox="0 0 960 540" width="960" height="540" xmlns="http://www.w3.org/2000/svg" xmlns:xlink="http://www.w3.org/1999/xlink" version="1.1"><rect x="0" y="0" width="960" height="540" fill="#001220"></rect><path d="M0 348L22.8 350.7C45.7 353.3 91.3 358.7 137 356.2C182.7 353.7 228.3 343.3 274 336C319.7 328.7 365.3 324.3 411.2 333C457 341.7 503 363.3 548.8 363.8C594.7 364.3 640.3 343.7 686 346.2C731.7 348.7 777.3 374.3 823 375C868.7 375.7 914.3 351.3 937.2 339.2L960 327L960 541L937.2 541C914.3 541 868.7 541 823 541C777.3 541 731.7 541 686 541C640.3 541 594.7 541 548.8 541C503 541 457 541 411.2 541C365.3 541 319.7 541 274 541C228.3 541 182.7 541 137 541C91.3 541 45.7 541 22.8 541L0 541Z" fill="#fa7268"></path><path d="M0 430L22.8 421.2C45.7 412.3 91.3 394.7 137 384.2C182.7 373.7 228.3 370.3 274 367.3C319.7 364.3 365.3 361.7 411.2 364.3C457 367 503 375 548.8 376.7C594.7 378.3 640.3 373.7 686 374.8C731.7 376 777.3 383 823 391.7C868.7 400.3 914.3 410.7 937.2 415.8L960 421L960 541L937.2 541C914.3 541 868.7 541 823 541C777.3 541 731.7 541 686 541C640.3 541 594.7 541 548.8 541C503 541 457 541 411.2 541C365.3 541 319.7 541 274 541C228.3 541 182.7 541 137 541C91.3 541 45.7 541 22.8 541L0 541Z" fill="#ef5f67"></path><path d="M0 416L22.8 412.8C45.7 409.7 91.3 403.3 137 410.5C182.7 417.7 228.3 438.3 274 447C319.7 455.7 365.3 452.3 411.2 450C457 447.7 503 446.3 548.8 442C594.7 437.7 640.3 430.3 686 426.8C731.7 423.3 777.3 423.7 823 422.3C868.7 421 914.3 418 937.2 416.5L960 415L960 541L937.2 541C914.3 541 868.7 541 823 541C777.3 541 731.7 541 686 541C640.3 541 594.7 541 548.8 541C503 541 457 541 411.2 541C365.3 541 319.7 541 274 541C228.3 541 182.7 541 137 541C91.3 541 45.7 541 22.8 541L0 541Z" fill="#e34c67"></path><path d="M0 451L22.8 451.7C45.7 452.3 91.3 453.7 137 458.5C182.7 463.3 228.3 471.7 274 476C319.7 480.3 365.3 480.7 411.2 476.7C457 472.7 503 464.3 548.8 462.8C594.7 461.3 640.3 466.7 686 471.3C731.7 476 777.3 480 823 474.8C868.7 469.7 914.3 455.3 937.2 448.2L960 441L960 541L937.2 541C914.3 541 868.7 541 823 541C777.3 541 731.7 541 686 541C640.3 541 594.7 541 548.8 541C503 541 457 541 411.2 541C365.3 541 319.7 541 274 541C228.3 541 182.7 541 137 541C91.3 541 45.7 541 22.8 541L0 541Z" fill="#d53867"></path><path d="M0 477L22.8 477.3C45.7 477.7 91.3 478.3 137 481.8C182.7 485.3 228.3 491.7 274 490.7C319.7 489.7 365.3 481.3 411.2 480.5C457 479.7 503 486.3 548.8 486.3C594.7 486.3 640.3 479.7 686 481.3C731.7 483 777.3 493 823 498.8C868.7 504.7 914.3 506.3 937.2 507.2L960 508L960 541L937.2 541C914.3 541 868.7 541 823 541C777.3 541 731.7 541 686 541C640.3 541 594.7 541 548.8 541C503 541 457 541 411.2 541C365.3 541 319.7 541 274 541C228.3 541 182.7 541 137 541C91.3 541 45.7 541 22.8 541L0 541Z" fill="#c62368"></path></svg>